<svg width="17" height="16" viewBox="0 0 17 16" fill="none" xmlns="http://www.w3.org/2000/svg">
<path d="M2.125 10.3571C1.53113 10.3571 1.0285 10.1497 0.6171 9.73486C0.2057 9.32 0 8.81314 0 8.21429C0 7.61543 0.2057 7.10857 0.6171 6.69371C1.0285 6.27886 1.53113 6.07143 2.125 6.07143V4.19236C2.125 3.76621 2.27545 3.40143 2.57635 3.098C2.87725 2.79457 3.239 2.64286 3.66159 2.64286H6.375C6.375 2.044 6.5807 1.53714 6.9921 1.12229C7.4035 0.707428 7.90613 0.5 8.5 0.5C9.09387 0.5 9.5965 0.707428 10.0079 1.12229C10.4193 1.53714 10.625 2.044 10.625 2.64286H13.3384C13.761 2.64286 14.1228 2.79457 14.4237 3.098C14.7246 3.40143 14.875 3.76621 14.875 4.19236V6.07143C15.4689 6.07143 15.9715 6.27886 16.3829 6.69371C16.7943 7.10857 17 7.61543 17 8.21429C17 8.81314 16.7943 9.32 16.3829 9.73486C15.9715 10.1497 15.4689 10.3571 14.875 10.3571V13.9505C14.875 14.3766 14.7246 14.7414 14.4237 15.0449C14.1228 15.3483 13.761 15.5 13.3384 15.5H3.66159C3.239 15.5 2.87725 15.3483 2.57635 15.0449C2.27545 14.7414 2.125 14.3766 2.125 13.9505V10.3571ZM5.94894 8.85714C6.24389 8.85714 6.49485 8.75307 6.70183 8.54493C6.90894 8.33679 7.0125 8.08407 7.0125 7.78679C7.0125 7.48936 6.9093 7.23629 6.70289 7.02757C6.49648 6.81871 6.24587 6.71429 5.95106 6.71429C5.65611 6.71429 5.40515 6.81836 5.19817 7.0265C4.99106 7.23464 4.8875 7.48736 4.8875 7.78464C4.8875 8.08207 4.9907 8.33514 5.19711 8.54386C5.40352 8.75271 5.65413 8.85714 5.94894 8.85714ZM11.0489 8.85714C11.3439 8.85714 11.5949 8.75307 11.8018 8.54493C12.0089 8.33679 12.1125 8.08407 12.1125 7.78679C12.1125 7.48936 12.0093 7.23629 11.8029 7.02757C11.5965 6.81871 11.3459 6.71429 11.0511 6.71429C10.7561 6.71429 10.5052 6.81836 10.2982 7.0265C10.0911 7.23464 9.9875 7.48736 9.9875 7.78464C9.9875 8.08207 10.0907 8.33514 10.2971 8.54386C10.5035 8.75271 10.7541 8.85714 11.0489 8.85714ZM5.3125 12.2857H11.6875V11H5.3125V12.2857ZM3.66159 14.2143H13.3384C13.4148 14.2143 13.4775 14.1896 13.5265 14.1401C13.5755 14.0907 13.6 14.0275 13.6 13.9505V4.19236C13.6 4.11536 13.5755 4.05214 13.5265 4.00271C13.4775 3.95329 13.4148 3.92857 13.3384 3.92857H3.66159C3.58523 3.92857 3.52254 3.95329 3.47353 4.00271C3.42451 4.05214 3.4 4.11536 3.4 4.19236V13.9505C3.4 14.0275 3.42451 14.0907 3.47353 14.1401C3.52254 14.1896 3.58523 14.2143 3.66159 14.2143Z" fill="black"/>
</svg>
