<svg width="15" height="4" viewBox="0 0 15 4" fill="none" xmlns="http://www.w3.org/2000/svg">
<path d="M1.73077 3.5C1.31827 3.5 0.965191 3.35308 0.671524 3.05925C0.377691 2.76558 0.230774 2.4125 0.230774 2C0.230774 1.5875 0.377691 1.23442 0.671524 0.94075C0.965191 0.646917 1.31827 0.5 1.73077 0.5C2.14327 0.5 2.49644 0.646917 2.79027 0.94075C3.08394 1.23442 3.23077 1.5875 3.23077 2C3.23077 2.4125 3.08394 2.76558 2.79027 3.05925C2.49644 3.35308 2.14327 3.5 1.73077 3.5ZM7.50002 3.5C7.08752 3.5 6.73444 3.35308 6.44077 3.05925C6.14694 2.76558 6.00002 2.4125 6.00002 2C6.00002 1.5875 6.14694 1.23442 6.44077 0.94075C6.73444 0.646917 7.08752 0.5 7.50002 0.5C7.91252 0.5 8.26561 0.646917 8.55927 0.94075C8.85311 1.23442 9.00002 1.5875 9.00002 2C9.00002 2.4125 8.85311 2.76558 8.55927 3.05925C8.26561 3.35308 7.91252 3.5 7.50002 3.5ZM13.2693 3.5C12.8568 3.5 12.5036 3.35308 12.2098 3.05925C11.9161 2.76558 11.7693 2.4125 11.7693 2C11.7693 1.5875 11.9161 1.23442 12.2098 0.94075C12.5036 0.646917 12.8568 0.5 13.2693 0.5C13.6818 0.5 14.0349 0.646917 14.3285 0.94075C14.6224 1.23442 14.7693 1.5875 14.7693 2C14.7693 2.4125 14.6224 2.76558 14.3285 3.05925C14.0349 3.35308 13.6818 3.5 13.2693 3.5Z" fill="#4D4D4D"/>
</svg>
