<svg width="15" height="14" viewBox="0 0 15 14" fill="none" xmlns="http://www.w3.org/2000/svg">
<path d="M5.444 12.1705C4.33467 11.6614 3.43333 10.8924 2.74 9.86364C2.04667 8.83485 1.7 7.67348 1.7 6.37955C1.7 6.10379 1.71333 5.83333 1.74 5.56818C1.76667 5.30303 1.812 5.04318 1.876 4.78864L1.14 5.21818L0.5 4.12045L3.556 2.37045L5.316 5.39318L4.196 6.02955L3.332 4.53409C3.21467 4.82045 3.12667 5.11742 3.068 5.425C3.00933 5.73258 2.98 6.05076 2.98 6.37955C2.98 7.40833 3.26267 8.34432 3.828 9.1875C4.39333 10.0307 5.14533 10.6538 6.084 11.0568L5.444 12.1705ZM10.34 4.45455V3.18182H12.084C11.5933 2.57727 11.0013 2.10795 10.308 1.77386C9.61467 1.43977 8.87867 1.27273 8.1 1.27273C7.51333 1.27273 6.95867 1.36288 6.436 1.54318C5.91333 1.72348 5.43333 1.97803 4.996 2.30682L4.356 1.19318C4.88933 0.82197 5.47067 0.530303 6.1 0.318182C6.72933 0.106061 7.396 0 8.1 0C8.94267 0 9.748 0.156439 10.516 0.469318C11.284 0.782197 11.972 1.23561 12.58 1.82955V0.954545H13.86V4.45455H10.34ZM9.924 14L6.868 12.25L8.628 9.22727L9.732 9.86364L8.82 11.4227C10.0787 11.2424 11.1267 10.675 11.964 9.72045C12.8013 8.76591 13.22 7.64697 13.22 6.36364C13.22 6.24697 13.2173 6.13826 13.212 6.0375C13.2067 5.93674 13.1933 5.83333 13.172 5.72727H14.468C14.4787 5.83333 14.4867 5.93674 14.492 6.0375C14.4973 6.13826 14.5 6.24697 14.5 6.36364C14.5 7.79545 14.0707 9.07614 13.212 10.2057C12.3533 11.3352 11.236 12.0962 9.86 12.4886L10.564 12.9023L9.924 14Z" fill="#575757"/>
</svg>
