<svg width="19" height="12" viewBox="0 0 19 12" fill="none" xmlns="http://www.w3.org/2000/svg">
<path d="M12.9545 10.2857C14.1492 10.2857 15.1676 9.86786 16.0097 9.03214C16.8517 8.19643 17.2727 7.18571 17.2727 6C17.2727 4.81429 16.8517 3.80357 16.0097 2.96786C15.1676 2.13214 14.1492 1.71429 12.9545 1.71429C12.5659 1.71429 12.1881 1.76429 11.821 1.86429C11.454 1.96429 11.1121 2.10714 10.7955 2.29286C11.2129 2.80714 11.5331 3.37857 11.7562 4.00714C11.9794 4.63571 12.0909 5.3 12.0909 6C12.0909 6.7 11.9794 7.36429 11.7562 7.99286C11.5331 8.62143 11.2129 9.19286 10.7955 9.70714C11.1121 9.89286 11.454 10.0357 11.821 10.1357C12.1881 10.2357 12.5659 10.2857 12.9545 10.2857ZM9.5 8.57143C9.77348 8.21429 9.9858 7.81786 10.1369 7.38214C10.2881 6.94643 10.3636 6.48571 10.3636 6C10.3636 5.51429 10.2881 5.05357 10.1369 4.61786C9.9858 4.18214 9.77348 3.78571 9.5 3.42857C9.22652 3.78571 9.0142 4.18214 8.86307 4.61786C8.71193 5.05357 8.63636 5.51429 8.63636 6C8.63636 6.48571 8.71193 6.94643 8.86307 7.38214C9.0142 7.81786 9.22652 8.21429 9.5 8.57143ZM6.04545 10.2857C6.43409 10.2857 6.81193 10.2357 7.17898 10.1357C7.54602 10.0357 7.88788 9.89286 8.20455 9.70714C7.78712 9.19286 7.46686 8.62143 7.24375 7.99286C7.02064 7.36429 6.90909 6.7 6.90909 6C6.90909 5.3 7.02064 4.63571 7.24375 4.00714C7.46686 3.37857 7.78712 2.80714 8.20455 2.29286C7.88788 2.10714 7.54602 1.96429 7.17898 1.86429C6.81193 1.76429 6.43409 1.71429 6.04545 1.71429C4.85076 1.71429 3.83239 2.13214 2.99034 2.96786C2.1483 3.80357 1.72727 4.81429 1.72727 6C1.72727 7.18571 2.1483 8.19643 2.99034 9.03214C3.83239 9.86786 4.85076 10.2857 6.04545 10.2857ZM6.04545 12C4.36136 12 2.93277 11.4179 1.75966 10.2536C0.586553 9.08929 0 7.67143 0 6C0 4.32857 0.586553 2.91071 1.75966 1.74643C2.93277 0.582143 4.36136 0 6.04545 0C6.69318 0 7.30852 0.0928571 7.89148 0.278571C8.47443 0.464286 9.01061 0.728571 9.5 1.07143C9.98939 0.728571 10.5256 0.464286 11.1085 0.278571C11.6915 0.0928571 12.3068 0 12.9545 0C14.6386 0 16.0672 0.582143 17.2403 1.74643C18.4134 2.91071 19 4.32857 19 6C19 7.67143 18.4134 9.08929 17.2403 10.2536C16.0672 11.4179 14.6386 12 12.9545 12C12.3068 12 11.6915 11.9071 11.1085 11.7214C10.5256 11.5357 9.98939 11.2714 9.5 10.9286C9.01061 11.2714 8.47443 11.5357 7.89148 11.7214C7.30852 11.9071 6.69318 12 6.04545 12Z" fill="#4D4D4D"/>
</svg>
