<svg width="15" height="14" viewBox="0 0 15 14" fill="none" xmlns="http://www.w3.org/2000/svg">
<path d="M7.5 10.5C7.69833 10.5 7.86458 10.4329 7.99875 10.2988C8.13292 10.1646 8.2 9.99833 8.2 9.8C8.2 9.60167 8.13292 9.43542 7.99875 9.30125C7.86458 9.16708 7.69833 9.1 7.5 9.1C7.30167 9.1 7.13542 9.16708 7.00125 9.30125C6.86708 9.43542 6.8 9.60167 6.8 9.8C6.8 9.99833 6.86708 10.1646 7.00125 10.2988C7.13542 10.4329 7.30167 10.5 7.5 10.5ZM6.8 7.7H8.2V3.5H6.8V7.7ZM7.5 14C6.53167 14 5.62167 13.8163 4.77 13.4488C3.91833 13.0813 3.1775 12.5825 2.5475 11.9525C1.9175 11.3225 1.41875 10.5817 1.05125 9.73C0.68375 8.87833 0.5 7.96833 0.5 7C0.5 6.03167 0.68375 5.12167 1.05125 4.27C1.41875 3.41833 1.9175 2.6775 2.5475 2.0475C3.1775 1.4175 3.91833 0.91875 4.77 0.55125C5.62167 0.18375 6.53167 0 7.5 0C8.46833 0 9.37833 0.18375 10.23 0.55125C11.0817 0.91875 11.8225 1.4175 12.4525 2.0475C13.0825 2.6775 13.5813 3.41833 13.9488 4.27C14.3163 5.12167 14.5 6.03167 14.5 7C14.5 7.96833 14.3163 8.87833 13.9488 9.73C13.5813 10.5817 13.0825 11.3225 12.4525 11.9525C11.8225 12.5825 11.0817 13.0813 10.23 13.4488C9.37833 13.8163 8.46833 14 7.5 14ZM7.5 12.6C9.06333 12.6 10.3875 12.0575 11.4725 10.9725C12.5575 9.8875 13.1 8.56333 13.1 7C13.1 5.43667 12.5575 4.1125 11.4725 3.0275C10.3875 1.9425 9.06333 1.4 7.5 1.4C5.93667 1.4 4.6125 1.9425 3.5275 3.0275C2.4425 4.1125 1.9 5.43667 1.9 7C1.9 8.56333 2.4425 9.8875 3.5275 10.9725C4.6125 12.0575 5.93667 12.6 7.5 12.6Z" fill="#EC6B1A"/>
</svg>
