<svg width="79" height="20" viewBox="0 0 79 20" fill="none" xmlns="http://www.w3.org/2000/svg">
<path d="M18.902 9.854C18.902 14.872 15.132 19.916 9.438 19.916C4.238 19.916 0 15.314 0 10.062C0 5.044 3.822 0 9.516 0C14.716 0 18.902 4.602 18.902 9.854ZM16.25 10.634C16.25 6.604 13.962 1.118 9.178 1.118C5.33 1.118 2.626 4.472 2.626 9.282C2.626 13.312 4.992 18.824 9.75 18.824C13.858 18.824 16.25 15.418 16.25 10.634Z" fill="#E0E0E0"/>
<path d="M28.8789 10.608H26.0969V16.016C26.0969 18.096 26.3829 18.538 28.5409 18.564V19.526C27.2149 19.448 22.6649 19.422 21.3649 19.526V18.59C23.4449 18.59 23.7829 18.33 23.7829 16.016V3.692C23.7829 1.638 23.3929 1.378 21.3649 1.352V0.415999C23.0029 0.442001 27.0589 0.468 28.8529 0.415999C33.7149 0.415999 34.8589 3.354 34.8589 5.304C34.8589 7.722 33.0649 9.516 31.1669 10.062C32.4409 12.22 34.6249 15.314 35.8989 16.822C36.6269 17.706 37.5629 18.564 38.9669 18.564V19.526C37.7709 19.448 36.0029 19.448 34.9109 19.526C33.0389 17.004 30.5429 13.156 28.8789 10.608ZM26.0969 9.412L27.6569 9.464C31.1669 9.464 32.3629 7.358 32.3629 5.486C32.3629 3.224 31.2189 1.508 27.8389 1.508C27.0849 1.508 26.6169 1.508 26.0969 1.586V9.412Z" fill="#E0E0E0"/>
<path d="M47.8729 8.294L54.7889 17.68C55.4909 18.59 57.1289 18.564 57.7009 18.564V19.5C56.8169 19.448 54.2949 19.448 53.4629 19.5L46.4169 9.698L44.7529 11.362V16.042C44.7529 18.252 45.1429 18.538 46.9109 18.564V19.526C45.6889 19.474 41.3209 19.448 39.9949 19.526V18.564C42.0489 18.538 42.4389 18.252 42.4389 16.042V3.718C42.4389 1.612 42.0749 1.378 39.9949 1.352V0.39C41.2429 0.442001 45.6889 0.442001 46.7809 0.39V1.352C45.1169 1.378 44.7529 1.612 44.7529 3.718V9.724L51.2529 3.406C51.5649 3.12 52.4489 2.21 52.4489 1.846C52.4489 1.404 52.0329 1.352 50.9669 1.352V0.39C52.1629 0.442001 55.5429 0.494 56.6349 0.415999V1.352C55.3609 1.352 54.4249 1.846 52.0589 4.186L47.8729 8.294Z" fill="#E0E0E0"/>
<path d="M61.2769 16.016V3.666C61.2769 1.56 60.9389 1.378 58.8329 1.352V0.39C60.0809 0.468 64.6829 0.442001 66.0089 0.39V1.352C63.9289 1.378 63.5909 1.56 63.5909 3.666V16.016C63.5909 18.148 64.0069 18.538 66.0089 18.564V19.526C64.7089 19.474 60.1589 19.448 58.8329 19.526V18.564C60.8609 18.538 61.2769 18.122 61.2769 16.016Z" fill="#E0E0E0"/>
<path d="M68.2537 19.058L67.6557 14.794H68.7477C69.2157 16.874 70.0737 18.824 72.4917 18.824C74.8316 18.824 76.4697 17.342 76.4697 15.34C76.4697 12.974 74.6237 12.012 72.6217 10.92C70.6197 9.828 68.2017 8.528 68.2017 5.434C68.2017 1.768 70.7497 0 73.9997 0C75.2737 0 76.0797 0.208 77.2237 0.39L77.7177 4.108H76.6257C76.3137 2.106 75.4557 1.118 73.6097 1.118C71.2957 1.118 70.1257 2.574 70.1257 4.446C70.1257 6.786 72.3617 8.112 74.4677 9.178C76.5477 10.244 78.6797 11.362 78.6797 14.3C78.6797 17.992 75.4817 19.916 72.3357 19.916C70.7757 19.916 69.6057 19.656 68.2537 19.058Z" fill="#E0E0E0"/>
</svg>
